<mxfile host="app.diagrams.net" agent="Mozilla/5.0 (Windows NT 10.0; Win64; x64) AppleWebKit/537.36 (KHTML, like Gecko) Chrome/134.0.0.0 Safari/537.36" version="26.2.5">
  <diagram name="PÃ¡gina-1" id="eCJ-ieyee1iWQ50bDB_v">
    <mxGraphModel grid="0" page="1" gridSize="10" guides="1" tooltips="1" connect="1" arrows="1" fold="1" pageScale="1" pageWidth="827" pageHeight="1169" background="light-dark(#FFFFFF,#FFFFFF)" math="0" shadow="0">
      <root>
        <mxCell id="0" />
        <mxCell id="1" parent="0" />
        <mxCell id="g2-XB_4kTiROahm3BZU0-15" style="edgeStyle=orthogonalEdgeStyle;rounded=0;orthogonalLoop=1;jettySize=auto;html=1;strokeColor=light-dark(#000000,#000000);" edge="1" parent="1" source="g2-XB_4kTiROahm3BZU0-10" target="g2-XB_4kTiROahm3BZU0-13">
          <mxGeometry relative="1" as="geometry" />
        </mxCell>
        <mxCell id="g2-XB_4kTiROahm3BZU0-10" value="web--medical-consulting" style="image;html=1;image=img/lib/clip_art/computers/Network_128x128.png;fontColor=light-dark(#000000,#000000);labelBackgroundColor=light-dark(default, #ffffff);fontSize=15;" vertex="1" parent="1">
          <mxGeometry x="378" y="380" width="80" height="80" as="geometry" />
        </mxCell>
        <mxCell id="g2-XB_4kTiROahm3BZU0-12" value="Mysql Database" style="image;html=1;image=img/lib/clip_art/computers/Database_128x128.png;fontSize=15;align=center;labelBackgroundColor=light-dark(#FFFFFF, #ffffff);fontColor=light-dark(#000000,#000000);" vertex="1" parent="1">
          <mxGeometry x="1108" y="380" width="80" height="80" as="geometry" />
        </mxCell>
        <mxCell id="g2-XB_4kTiROahm3BZU0-24" style="edgeStyle=orthogonalEdgeStyle;rounded=0;orthogonalLoop=1;jettySize=auto;html=1;exitX=0.5;exitY=0;exitDx=0;exitDy=0;entryX=0;entryY=0.5;entryDx=0;entryDy=0;strokeColor=light-dark(#000000,#000000);" edge="1" parent="1" source="g2-XB_4kTiROahm3BZU0-13" target="g2-XB_4kTiROahm3BZU0-16">
          <mxGeometry relative="1" as="geometry" />
        </mxCell>
        <mxCell id="g2-XB_4kTiROahm3BZU0-25" style="edgeStyle=orthogonalEdgeStyle;rounded=0;orthogonalLoop=1;jettySize=auto;html=1;exitX=1;exitY=0.5;exitDx=0;exitDy=0;strokeColor=light-dark(#000000,#000000);" edge="1" parent="1" source="g2-XB_4kTiROahm3BZU0-13" target="g2-XB_4kTiROahm3BZU0-17">
          <mxGeometry relative="1" as="geometry" />
        </mxCell>
        <mxCell id="g2-XB_4kTiROahm3BZU0-28" style="edgeStyle=orthogonalEdgeStyle;rounded=0;orthogonalLoop=1;jettySize=auto;html=1;strokeColor=light-dark(#000000,#000000);" edge="1" parent="1" source="g2-XB_4kTiROahm3BZU0-13" target="g2-XB_4kTiROahm3BZU0-18">
          <mxGeometry relative="1" as="geometry">
            <Array as="points">
              <mxPoint x="638" y="610" />
            </Array>
          </mxGeometry>
        </mxCell>
        <mxCell id="g2-XB_4kTiROahm3BZU0-13" value="bff--medical-consulting" style="image;html=1;image=img/lib/clip_art/computers/Server_Tower_128x128.png;fontColor=light-dark(#000000,#000000);labelBackgroundColor=light-dark(default, #ffffff);fontSize=15;" vertex="1" parent="1">
          <mxGeometry x="598" y="380" width="80" height="80" as="geometry" />
        </mxCell>
        <mxCell id="g2-XB_4kTiROahm3BZU0-30" style="edgeStyle=orthogonalEdgeStyle;rounded=0;orthogonalLoop=1;jettySize=auto;html=1;entryX=0.5;entryY=0;entryDx=0;entryDy=0;strokeColor=light-dark(#000000,#000000);" edge="1" parent="1" source="g2-XB_4kTiROahm3BZU0-16" target="g2-XB_4kTiROahm3BZU0-12">
          <mxGeometry relative="1" as="geometry" />
        </mxCell>
        <mxCell id="g2-XB_4kTiROahm3BZU0-35" style="edgeStyle=orthogonalEdgeStyle;rounded=0;orthogonalLoop=1;jettySize=auto;html=1;entryX=0;entryY=0.5;entryDx=0;entryDy=0;exitX=0.5;exitY=0;exitDx=0;exitDy=0;strokeColor=light-dark(#000000,#000000);" edge="1" parent="1" source="g2-XB_4kTiROahm3BZU0-16" target="g2-XB_4kTiROahm3BZU0-19">
          <mxGeometry relative="1" as="geometry" />
        </mxCell>
        <mxCell id="g2-XB_4kTiROahm3BZU0-16" value="api--appointment" style="image;html=1;image=img/lib/clip_art/computers/Server_Tower_128x128.png;fontColor=light-dark(#000000,#000000);labelBackgroundColor=light-dark(default, #ffffff);fontSize=15;" vertex="1" parent="1">
          <mxGeometry x="788" y="200" width="80" height="80" as="geometry" />
        </mxCell>
        <mxCell id="g2-XB_4kTiROahm3BZU0-29" style="edgeStyle=orthogonalEdgeStyle;rounded=0;orthogonalLoop=1;jettySize=auto;html=1;entryX=0;entryY=0.5;entryDx=0;entryDy=0;strokeColor=light-dark(#000000,#000000);" edge="1" parent="1" source="g2-XB_4kTiROahm3BZU0-17" target="g2-XB_4kTiROahm3BZU0-12">
          <mxGeometry relative="1" as="geometry">
            <Array as="points">
              <mxPoint x="998" y="420" />
              <mxPoint x="998" y="420" />
            </Array>
          </mxGeometry>
        </mxCell>
        <mxCell id="g2-XB_4kTiROahm3BZU0-17" value="api--patient" style="image;html=1;image=img/lib/clip_art/computers/Server_Tower_128x128.png;fontColor=light-dark(#000000,#000000);labelBackgroundColor=light-dark(#FFFFFF,#FFFFFF);fontSize=15;" vertex="1" parent="1">
          <mxGeometry x="788" y="380" width="80" height="80" as="geometry" />
        </mxCell>
        <mxCell id="g2-XB_4kTiROahm3BZU0-18" value="viacep api&lt;div&gt;(Consulta de CEP)&lt;/div&gt;" style="image;html=1;image=img/lib/clip_art/networking/Cloud_Computer_128x128.png;labelBackgroundColor=light-dark(default, #ffffff);fontColor=light-dark(#000000,#000000);fontSize=15;" vertex="1" parent="1">
          <mxGeometry x="788" y="570" width="80" height="80" as="geometry" />
        </mxCell>
        <mxCell id="g2-XB_4kTiROahm3BZU0-19" value="gemini IA api&lt;div&gt;(Gerar medicamentos por sintoma)&lt;/div&gt;" style="image;html=1;image=img/lib/clip_art/networking/Cloud_Computer_128x128.png;fontColor=light-dark(#000000,#000000);labelBackgroundColor=light-dark(default, #ffffff);fontSize=15;" vertex="1" parent="1">
          <mxGeometry x="908" y="50" width="80" height="80" as="geometry" />
        </mxCell>
        <mxCell id="g2-XB_4kTiROahm3BZU0-37" style="edgeStyle=orthogonalEdgeStyle;rounded=0;orthogonalLoop=1;jettySize=auto;html=1;entryX=0;entryY=0.5;entryDx=0;entryDy=0;strokeColor=light-dark(#000000,#000000);" edge="1" parent="1" source="g2-XB_4kTiROahm3BZU0-36" target="g2-XB_4kTiROahm3BZU0-10">
          <mxGeometry relative="1" as="geometry" />
        </mxCell>
        <mxCell id="g2-XB_4kTiROahm3BZU0-36" value="Doctor User" style="image;html=1;image=img/lib/clip_art/people/Doctor_Man_128x128.png;fontColor=light-dark(#000000,#000000);labelBackgroundColor=light-dark(default, #ffffff);fontSize=15;" vertex="1" parent="1">
          <mxGeometry x="118" y="380" width="80" height="80" as="geometry" />
        </mxCell>
      </root>
    </mxGraphModel>
  </diagram>
</mxfile>
